<svg height='100px' width='100px'  fill="#FFFFFF" xmlns="http://www.w3.org/2000/svg" xmlns:xlink="http://www.w3.org/1999/xlink" version="1.1" x="0px" y="0px" viewBox="0 0 512 512" style="enable-background:new 0 0 512 512;" xml:space="preserve"><g><path d="M186.7,359.2l90-137.8c1.2-1.8,1.5-4.2,0.8-6.2L243.7,110h28.7V96h-184v14h29.4L84,215.2c-0.6,2-0.4,4.3,0.8,6.1   l90.1,137.9c1.3,2,3.5,3.2,5.9,3.2C183.2,362.4,185.4,361.2,186.7,359.2z M173.5,331.8L98.2,216.3L132.5,110H229l34,106.3   l-75.6,115.5v-77.6c13-3.1,22-14.5,22-27.9c0-15.9-12.8-28.8-28.7-28.8c-15.9,0-28.9,12.9-28.9,28.8c0,13.5,9.7,24.8,21.7,27.9   V331.8z M165.9,226.3c0-8.2,6.6-14.8,14.8-14.8s14.8,6.6,14.8,14.8s-6.6,14.8-14.8,14.8S165.9,234.5,165.9,226.3z"></path><rect x="177.4" y="402" width="251" height="14"></rect></g></svg>